 http://s19.postimage.org/4duaysgyb/screenshots.png


Storyline

This is comedic tale of espionage. An ousted CIA
official's memoir accidentally falls into the hands of 
two unwise gym employees intent on exploiting their find.


Cast

George Clooney ... Harry Pfarrer
Frances McDormand ... Linda Litzke
Tilda Swinton ... Katie Cox
Brad Pitt ... Chad Feldheimer
Richard Jenkins ... Ted Treffon
J.K. Simmons ... CIA Superior
John Malkovich ... Ozzie Cox
Elizabeth Marvel ... Sandy Pfarrer
David Rasche ... CIA Officer
Olek Krupa ... Krapotkin
Michael Countryman ... Alan
Kevin Sussman ... Tuchman Marsh Man
J.R. Horne ... Divorce Lawyer
Hamilton Clancy ... Peck
Armand Schultz ... Olson




Rip Information

General
Format                                   : Matroska
Format version                           : Version 4 / Version 2
File size                                : 314 MiB
Duration                                 : 1h 35mn
Overall bit rate                         : 458 Kbps
Movie name                               : Burn After Reading 2008 {BRRip} {x264} {Eng} { rdx004} {DMRG}
Encoded date                             : UTC 2013-03-05 06:59:13


Video

ID                                       : 1
Format                                   : AVC
Format/Info                              : Advanced Video Codec
Format profile                           : High@L2.1
Format settings, CABAC                   : Yes
Format settings, ReFrames                : 4 frames
Codec ID                                 : V_MPEG4/ISO/AVC
Duration                                 : 1h 35mn
Bit rate                                 : 392 Kbps
Width                                    : 608 pixels
Height                                   : 272 pixels
Display aspect ratio                     : 16:9
Original display aspect ratio            : 1.904
Frame rate mode                          : Constant
Frame rate                               : 23.976 fps
Color space                              : YUV
Chroma subsampling                       : 4:2:0
Bit depth                                : 8 bits
Scan type                                : Progressive
Bits/(Pixel*Frame)                       : 0.099
Stream size                              : 264 MiB (84%)
Title                                    : Burn After Reading 2008 {BRRip} {x264} {Eng} { rdx004} {DMRG}
Writing library                          : x264 core 112
Language                                 : English
Default                                  : Yes
Forced                                   : No
Color primaries                          : BT.601 NTSC
Transfer characteristics                 : BT.709
Matrix coefficients                      : BT.601

Audio

ID                                       : 2
Format                                   : MPEG Audio
Format version                           : Version 2
Format profile                           : Layer 3
Codec ID                                 : A_MPEG/L3
Codec ID/Hint                            : MP3
Duration                                 : 1h 35mn
Bit rate mode                            : Constant
Bit rate                                 : 64.0 Kbps
Channel(s)                               : 2 channels
Sampling rate                            : 22.05 KHz
Compression mode                         : Lossy
Stream size                              : 43.9 MiB (14%)
Title                                    : Trach by rdx004
Writing library                          : LAMELAME_MAJOR_VERSI
Language                                 : English
Default                                  : Yes
Forced                                   : No





Subtitle

ID                                       : 3
Format                                   : UTF-8
Codec ID                                 : S_TEXT/UTF8
Codec ID/Info                            : UTF-8 Plain Text
Language                                 : English
Default                                  : No
Forced                                   : No